<svg width="200" height="200" viewBox="0 0 200 200" fill="none" xmlns="http://www.w3.org/2000/svg">
  <rect x="16" y="16" width="168" height="168" rx="32" fill="url(#paint0_linear)"/>
  <rect x="30" y="30" width="140" height="140" rx="24" fill="url(#paint1_linear)" stroke="#0F172A" stroke-width="6" stroke-linejoin="round"/>
  <circle cx="64" cy="64" r="12" fill="#0F172A"/>
  <circle cx="64" cy="64" r="6" fill="#1FB6AD"/>
  <path d="M86 60.5C86 53.5964 91.5964 48 98.5 48H120C126.904 48 132.5 53.5964 132.5 60.5C132.5 66.2176 128.766 71.1374 123.322 72.6276L110.5 76.138V128.5C110.5 135.404 104.904 141 98 141C91.0964 141 85.5 135.404 85.5 128.5V80L86 60.5Z" fill="#0F172A"/>
  <path d="M92 61.5C92 58.1863 94.6863 55.5 98 55.5H115C118.314 55.5 121 58.1863 121 61.5C121 64.8137 118.314 67.5 115 67.5H103.5C99.634 67.5 96.5 70.634 96.5 74.5V128C96.5 131.314 93.8137 134 90.5 134C87.1863 134 84.5 131.314 84.5 128V79.5L92 61.5Z" fill="#1FB6AD"/>
  <path d="M93 134C93 137.314 90.3137 140 87 140C83.6863 140 81 137.314 81 134V94C81 90.6863 83.6863 88 87 88C90.3137 88 93 90.6863 93 94V134Z" fill="#F8D23C" stroke="#0F172A" stroke-width="6" stroke-linejoin="round"/>
  <defs>
    <linearGradient id="paint0_linear" x1="16" y1="16" x2="184" y2="184" gradientUnits="userSpaceOnUse">
      <stop stop-color="#FFE9A3"/>
      <stop offset="1" stop-color="#FFD45C"/>
    </linearGradient>
    <linearGradient id="paint1_linear" x1="30" y1="30" x2="170" y2="170" gradientUnits="userSpaceOnUse">
      <stop stop-color="#FDEA9E"/>
      <stop offset="1" stop-color="#FFC734"/>
    </linearGradient>
  </defs>
</svg>
