<?xml version="1.0" encoding="UTF-8"?>
<svg id="Layer_1" data-name="Layer 1" xmlns="http://www.w3.org/2000/svg" width="1014.88" height="1014.88" viewBox="0 0 1014.88 1014.88">
  <defs>
    <style>
      .cls-1, .cls-2 {
        fill: #f7eec7;
      }

      .cls-1, .cls-2, .cls-3, .cls-4 {
        stroke-miterlimit: 10;
        stroke-width: 30px;
      }

      .cls-1, .cls-3 {
        stroke: #000;
      }

      .cls-2, .cls-4 {
        stroke: #231f20;
      }

      .cls-3, .cls-5 {
        fill: #f4c451;
      }

      .cls-4 {
        fill: none;
      }

      .cls-6 {
        opacity: .39;
      }
    </style>
  </defs>
  <rect class="cls-2" x="15" y="15" width="984.88" height="984.88" rx="135.58" ry="135.58"/>
  <rect class="cls-5" x="79.75" y="71.09" width="868.51" height="872.7" rx="80.1" ry="80.1"/>
  <path class="cls-1" d="M804.38,293.91c-.55,5.94-5.54,8.87-6,9.13-58.55,89.11-117.1,178.22-175.66,267.32.24,68.44.48,136.88.72,205.32-1.63,4.6-5.54,13.63-14.37,21.66-7.45,6.77-15.13,9.86-19.61,11.28-21.14.61-42.27,1.24-63.4,1.85-21.14-.61-42.27-1.24-63.4-1.85-4.48-1.43-12.16-4.51-19.61-11.28-8.83-8.03-12.73-17.06-14.37-21.66.24-68.44.48-136.88.72-205.32-60.56-91.85-121.11-183.69-181.68-275.54l-23.45-39.42c-.45-2.3-3.66-20.64,9.38-36,12.51-14.74,30.05-15,32.55-15h127.37c3.53.76,9.92,2.65,16.2,7.72,5.43,4.37,8.25,9.16,9.1,10.57,6.34,10.54,48.62,74.35,107.18,162.55,58.57-88.2,100.84-152,107.18-162.55.26-.44.71-1.19,1.37-2.16.46-.68,3.35-4.86,7.73-8.41,6.39-5.18,13.62-7.11,16.2-7.72,47.63,26.9,95.27,53.79,142.9,80.69.51.57,3.38,3.94,2.93,8.82Z"/>
  <path class="cls-5" d="M754.57,277.85l-181.47,275.13c-.99,71.66-1.98,143.31-2.97,214.97h-88.14c-.99-71.66-1.98-143.31-2.98-214.97-67.28-102.02-134.58-204.04-201.86-306.06h97.66c50.42,76.49,100.83,152.98,151.25,229.48,50.42-76.49,100.83-152.98,151.25-229.48,25.75,10.31,51.51,20.62,77.26,30.93Z"/>
  <line class="cls-4" x1="686.67" y1="398.53" x2="686.67" y2="398.53"/>
  <path class="cls-6" d="M695.74,359c22.24-4.41,44.49-8.82,66.73-13.23,17.09-4.92,26.87-17.08,25.37-26.8-.26-1.7-1.32-6.23-7.25-10.8l-124.74-77.85c-7.62-7.46-18.96-8.62-26.82-3.33-6.01,4.04-9.3,11.39-8.8,19.08,3.22,24.41,6.44,48.82,9.66,73.23,1.39,5.91,4.63,15.62,12.78,24.25,19.8,20.98,50.08,15.99,53.07,15.45Z"/>
  <path class="cls-3" d="M696.89,329.84c27.89-5.9,55.78-11.8,83.67-17.7,13.06-2.54,21.05-13.42,19.72-22.94-1.25-8.93-10.28-13.66-11.34-14.19-42.08-23.31-84.15-46.61-126.23-69.92-1.32-.36-8.39-2.17-15.44,2-5.79,3.42-7.98,8.76-8.56,10.36,3.63,28,7.81,51.78,11.53,70.53,3.31,16.71,6.02,28.21,16.08,35.68,10.44,7.75,23.41,7.16,30.56,6.18Z"/>
</svg>